<svg width="479" height="70" viewBox="0 0 479 70" fill="none" xmlns="http://www.w3.org/2000/svg">
<g clip-path="url(#clip0_63_21)">
<path d="M37.3538 5.09248C37.5704 2.33957 39.9919 0.24788 42.6859 0.854284C46.5946 1.73411 50.3239 3.27885 53.7099 5.4206C56.0437 6.89677 56.2768 10.088 54.4834 12.1878L49.6126 17.8909C47.8192 19.9907 44.6742 20.1579 42.154 19.0291C41.8512 18.8934 41.5445 18.7664 41.2345 18.6482C38.6543 17.6644 36.5487 15.3223 36.7653 12.5694L37.3538 5.09248Z" fill="#3DB231"/>
<path d="M57.8117 15.5159C59.9114 13.7225 63.1027 13.9556 64.5789 16.2893C66.7207 19.6752 68.2656 23.4045 69.1455 27.3132C69.752 30.0072 67.6604 32.4287 64.9075 32.6454L57.4306 33.2341C54.6777 33.4508 52.3355 31.3453 51.3516 28.7651C51.2334 28.455 51.1064 28.1484 50.9707 27.8456C49.8418 25.3254 50.009 22.1804 52.1087 20.387L57.8117 15.5159Z" fill="#3DB231"/>
<path d="M64.786 37.3701C67.5388 37.5892 69.6285 40.0125 69.0184 42.7057C68.1389 46.5887 66.6007 50.2931 64.4712 53.6571C62.9941 55.9903 59.8025 56.2207 57.7043 54.4255L52.0508 49.5886C49.9525 47.7934 49.7883 44.6481 50.9169 42.1278C51.0474 41.8364 51.1698 41.5414 51.2841 41.2433C52.2727 38.6649 54.6165 36.561 57.3692 36.78L64.786 37.3701Z" fill="#1456C0"/>
<path d="M54.3865 57.7376C56.1782 59.8389 55.9424 63.0301 53.6067 64.5032C50.2391 66.6271 46.532 68.159 42.6475 69.0319C39.9533 69.6374 37.5335 67.5436 37.3192 64.7905L36.7416 57.3727C36.5272 54.6196 38.6351 52.2794 41.2152 51.2952C41.5135 51.1814 41.8087 51.0594 42.1004 50.9294C44.6225 49.8051 47.7675 49.9747 49.5592 52.076L54.3865 57.7376Z" fill="#1456C0"/>
<path d="M32.6462 64.9075C32.4296 67.6604 30.0081 69.7521 27.3141 69.1457C23.4054 68.2659 19.6761 66.7212 16.2901 64.5794C13.9563 63.1032 13.7231 59.912 15.5165 57.8122L20.3874 52.1091C22.1808 50.0093 25.3258 49.8421 27.846 50.9709C28.1488 51.1066 28.4554 51.2336 28.7655 51.3518C31.3457 52.3356 33.4513 54.6777 33.2347 57.4306L32.6462 64.9075Z" fill="#1456C0"/>
<path d="M12.1883 54.4841C10.0886 56.2775 6.89732 56.0444 5.42109 53.7107C3.27925 50.3248 1.73441 46.5955 0.854484 42.6868C0.248009 39.9928 2.33963 37.5713 5.09254 37.3546L12.5694 36.7659C15.3223 36.5492 17.6645 38.6547 18.6484 41.2349C18.7666 41.545 18.8936 41.8516 19.0293 42.1544C20.1582 44.6746 19.991 47.8196 17.8913 49.613L12.1883 54.4841Z" fill="#1456C0"/>
<path d="M5.21975 32.5534C2.4676 32.3273 0.384117 29.8987 1.00107 27.207C1.89059 23.3263 3.43828 19.6258 5.57649 16.2673C7.05951 13.9379 10.2517 13.7157 12.3453 15.5163L17.9864 20.3678C20.08 22.1684 20.2361 25.314 19.1011 27.8314C18.9699 28.1225 18.8466 28.4171 18.7316 28.715C17.7364 31.2909 15.3872 33.3887 12.6351 33.1626L5.21975 32.5534Z" fill="#1456C0"/>
<path d="M15.6716 12.2127C13.8853 10.1068 14.1293 6.91625 16.4688 5.44918C19.8418 3.33397 23.5528 1.81161 27.4395 0.948623C30.1353 0.350072 32.5497 2.4501 32.757 5.20374L33.3155 12.623C33.5228 15.3767 31.4089 17.7115 28.8263 18.689C28.5277 18.802 28.2322 18.9232 27.9402 19.0525C25.4151 20.1703 22.2706 19.9927 20.4844 17.8868L15.6716 12.2127Z" fill="#1456C0"/>
<path d="M107.516 63.027H90.0268C87.5024 63.027 85.6936 62.4692 84.6006 61.3536C83.5335 60.212 83 58.4088 83 55.9439V13.0561C83 10.5394 83.5465 8.73615 84.6396 7.64644C85.7587 6.53078 87.5544 5.97296 90.0268 5.97296H108.57C111.302 5.97296 113.671 6.1416 115.675 6.47889C117.679 6.81618 119.474 7.46482 121.062 8.4248C122.415 9.22911 123.612 10.254 124.653 11.4993C125.694 12.7188 126.488 14.0809 127.035 15.5858C127.581 17.0646 127.854 18.6343 127.854 20.2949C127.854 26.0029 124.992 30.1801 119.266 32.8265C126.787 35.2135 130.548 39.8577 130.548 46.7592C130.548 49.9505 129.728 52.8305 128.089 55.3991C126.449 57.9417 124.237 59.8228 121.452 61.0422C119.709 61.7687 117.705 62.2876 115.44 62.5989C113.176 62.8843 110.535 63.027 107.516 63.027ZM106.657 37.6913H94.5942V54.3483H107.047C114.881 54.3483 118.798 51.5332 118.798 45.903C118.798 43.0231 117.783 40.9345 115.753 39.6372C113.723 38.3399 110.691 37.6913 106.657 37.6913ZM94.5942 14.6517V29.4017H105.213C108.101 29.4017 110.326 29.1293 111.888 28.5844C113.476 28.0396 114.686 27.0018 115.519 25.471C116.169 24.3813 116.494 23.1618 116.494 21.8127C116.494 18.9327 115.466 17.0257 113.41 16.0917C111.354 15.1317 108.218 14.6517 104.002 14.6517H94.5942Z" fill="black"/>
<path d="M150.535 26.8331V57.5396C150.535 59.6671 150.028 61.2757 149.013 62.3654C147.998 63.4551 146.71 64 145.148 64C143.587 64 142.312 63.4422 141.323 62.3265C140.36 61.2109 139.878 59.6152 139.878 57.5396V27.1445C139.878 25.0429 140.36 23.4602 141.323 22.3964C142.312 21.3327 143.587 20.8008 145.148 20.8008C146.71 20.8008 147.998 21.3327 149.013 22.3964C150.028 23.4602 150.535 24.9391 150.535 26.8331ZM145.265 15.8582C143.782 15.8582 142.507 15.4041 141.44 14.496C140.399 13.588 139.878 12.3036 139.878 10.6431C139.878 9.1383 140.412 7.90589 141.479 6.94591C142.572 5.95998 143.834 5.46702 145.265 5.46702C146.645 5.46702 147.868 5.90809 148.935 6.79024C150.002 7.67238 150.535 8.95668 150.535 10.6431C150.535 12.2777 150.015 13.562 148.974 14.496C147.933 15.4041 146.697 15.8582 145.265 15.8582Z" fill="black"/>
<path d="M162.169 21.7348H163.34V15.3522C163.34 13.6398 163.379 12.3036 163.457 11.3437C163.561 10.3577 163.821 9.51451 164.238 8.81398C164.654 8.08751 165.253 7.50374 166.034 7.06266C166.814 6.59565 167.686 6.36214 168.649 6.36214C170.002 6.36214 171.226 6.86807 172.319 7.87995C173.047 8.55453 173.503 9.38478 173.685 10.3707C173.893 11.3307 173.997 12.7058 173.997 14.496V21.7348H177.901C179.41 21.7348 180.556 22.0981 181.336 22.8245C182.143 23.5251 182.547 24.4332 182.547 25.5488C182.547 26.9758 181.974 27.9747 180.829 28.5455C179.71 29.1163 178.096 29.4017 175.988 29.4017H173.997V48.9387C173.997 50.5992 174.049 51.8835 174.153 52.7916C174.284 53.6737 174.596 54.4002 175.09 54.971C175.611 55.5158 176.444 55.7883 177.589 55.7883C178.213 55.7883 179.059 55.6845 180.126 55.4769C181.193 55.2434 182.026 55.1266 182.625 55.1266C183.483 55.1266 184.251 55.4769 184.928 56.1774C185.631 56.852 185.982 57.6952 185.982 58.7071C185.982 60.4195 185.045 61.7298 183.171 62.6379C181.297 63.546 178.604 64 175.09 64C171.759 64 169.235 63.4422 167.517 62.3265C165.799 61.2109 164.667 59.6671 164.121 57.6952C163.6 55.7234 163.34 53.0899 163.34 49.7949V29.4017H161.935C160.399 29.4017 159.228 29.0385 158.421 28.312C157.614 27.5855 157.211 26.6645 157.211 25.5488C157.211 24.4332 157.627 23.5251 158.46 22.8245C159.319 22.0981 160.555 21.7348 162.169 21.7348Z" fill="black"/>
<path d="M219.672 45.0079H198.825C198.851 47.4208 199.333 49.5484 200.27 51.3905C201.233 53.2326 202.495 54.6207 204.056 55.5547C205.644 56.4888 207.388 56.9558 209.287 56.9558C210.563 56.9558 211.721 56.8131 212.762 56.5277C213.829 56.2164 214.857 55.7493 215.846 55.1266C216.835 54.478 217.746 53.7905 218.578 53.064C219.411 52.3375 220.491 51.3516 221.819 50.1062C222.365 49.6392 223.146 49.4057 224.161 49.4057C225.254 49.4057 226.139 49.704 226.815 50.3008C227.492 50.8975 227.83 51.7408 227.83 52.8305C227.83 53.7905 227.453 54.9191 226.698 56.2164C225.944 57.4877 224.799 58.7201 223.263 59.9136C221.754 61.0811 219.841 62.0541 217.524 62.8325C215.234 63.6108 212.593 64 209.6 64C202.755 64 197.433 62.0541 193.633 58.1623C189.834 54.2704 187.934 48.9905 187.934 42.3226C187.934 39.1832 188.402 36.2773 189.339 33.6049C190.276 30.9066 191.642 28.5974 193.438 26.6774C195.234 24.7575 197.446 23.2916 200.075 22.2797C202.703 21.2419 205.618 20.723 208.819 20.723C212.983 20.723 216.549 21.6051 219.515 23.3694C222.508 25.1077 224.746 27.365 226.23 30.1412C227.713 32.9173 228.455 35.7454 228.455 38.6253C228.455 41.2977 227.687 43.0361 226.152 43.8404C224.616 44.6187 222.456 45.0079 219.672 45.0079ZM198.825 38.9756H218.149C217.889 35.3432 216.9 32.6319 215.182 30.8417C213.491 29.0255 211.252 28.1174 208.468 28.1174C205.813 28.1174 203.627 29.0385 201.909 30.8806C200.218 32.6968 199.19 35.3951 198.825 38.9756Z" fill="black"/>
<path d="M249.887 12.0053V28.3509H274.91V12.0053C274.91 9.67018 275.431 7.91887 276.472 6.75132C277.539 5.58377 278.931 5 280.649 5C282.392 5 283.798 5.58377 284.865 6.75132C285.958 7.89292 286.504 9.64424 286.504 12.0053V56.9558C286.504 59.3168 285.958 61.0811 284.865 62.2487C283.772 63.4162 282.366 64 280.649 64C278.905 64 277.513 63.4162 276.472 62.2487C275.431 61.0552 274.91 59.2909 274.91 56.9558V37.7691H249.887V56.9558C249.887 59.3168 249.34 61.0811 248.247 62.2487C247.154 63.4162 245.749 64 244.031 64C242.287 64 240.895 63.4162 239.854 62.2487C238.813 61.0552 238.293 59.2909 238.293 56.9558V12.0053C238.293 9.67018 238.8 7.91887 239.815 6.75132C240.856 5.58377 242.261 5 244.031 5C245.775 5 247.18 5.58377 248.247 6.75132C249.34 7.89292 249.887 9.64424 249.887 12.0053Z" fill="black"/>
<path d="M325.152 58.0066C322.575 60.0044 320.077 61.5092 317.657 62.5211C315.262 63.507 312.569 64 309.576 64C306.843 64 304.436 63.4681 302.354 62.4044C300.298 61.3146 298.71 59.8487 297.591 58.0066C296.472 56.1645 295.912 54.1667 295.912 52.0132C295.912 49.1073 296.836 46.6295 298.684 44.5798C300.532 42.5301 303.069 41.155 306.297 40.4545C306.973 40.2988 308.652 39.9485 311.332 39.4037C314.013 38.8588 316.303 38.3659 318.203 37.9248C320.129 37.4578 322.211 36.9 324.449 36.2513C324.319 33.4492 323.746 31.3995 322.731 30.1022C321.743 28.779 319.674 28.1174 316.524 28.1174C313.818 28.1174 311.775 28.4936 310.396 29.246C309.042 29.9985 307.871 31.1271 306.882 32.6319C305.919 34.1368 305.229 35.1357 304.813 35.6286C304.423 36.0956 303.564 36.3292 302.237 36.3292C301.039 36.3292 299.998 35.9529 299.114 35.2005C298.255 34.4222 297.825 33.4362 297.825 32.2427C297.825 30.3747 298.489 28.5585 299.816 26.7942C301.144 25.0299 303.213 23.577 306.023 22.4354C308.834 21.2938 312.334 20.723 316.524 20.723C321.209 20.723 324.892 21.2808 327.572 22.3964C330.253 23.4861 332.14 25.2245 333.233 27.6115C334.352 29.9985 334.911 33.1638 334.911 37.1075C334.911 39.5983 334.898 41.7128 334.872 43.4512C334.872 45.1895 334.859 47.1225 334.833 49.25C334.833 51.2478 335.159 53.3364 335.809 55.5158C336.486 57.6693 336.824 59.0574 336.824 59.6801C336.824 60.7698 336.304 61.7687 335.263 62.6768C334.248 63.5589 333.09 64 331.788 64C330.695 64 329.615 63.4941 328.548 62.4822C327.481 61.4444 326.349 59.9525 325.152 58.0066ZM324.449 42.6339C322.888 43.2047 320.61 43.8144 317.618 44.4631C314.651 45.0858 312.595 45.5528 311.45 45.8641C310.304 46.1495 309.211 46.7333 308.17 47.6154C307.129 48.4716 306.609 49.6781 306.609 51.2348C306.609 52.8434 307.22 54.2186 308.444 55.3602C309.667 56.4758 311.267 57.0336 313.245 57.0336C315.353 57.0336 317.292 56.5796 319.062 55.6715C320.858 54.7375 322.172 53.544 323.005 52.091C323.968 50.4824 324.449 47.836 324.449 44.1517V42.6339Z" fill="black"/>
<path d="M354.508 11.0712V27.3001C356.512 25.2245 358.555 23.6418 360.637 22.5521C362.719 21.4365 365.296 20.8786 368.367 20.8786C371.906 20.8786 375.003 21.7219 377.658 23.4083C380.338 25.0688 382.407 27.4947 383.865 30.686C385.348 33.8514 386.09 37.6135 386.09 41.9723C386.09 45.1895 385.674 48.1473 384.841 50.8456C384.034 53.518 382.85 55.8401 381.288 57.812C379.727 59.7839 377.827 61.3146 375.589 62.4044C373.377 63.4681 370.93 64 368.25 64C366.61 64 365.062 63.8054 363.604 63.4162C362.173 63.027 360.95 62.5211 359.935 61.8984C358.92 61.2498 358.048 60.5882 357.319 59.9136C356.616 59.239 355.679 58.2271 354.508 56.878V57.9288C354.508 59.9266 354.027 61.4444 353.064 62.4822C352.101 63.4941 350.878 64 349.394 64C347.885 64 346.675 63.4941 345.764 62.4822C344.879 61.4444 344.437 59.9266 344.437 57.9288V11.5383C344.437 9.38478 344.866 7.76319 345.725 6.67348C346.61 5.55783 347.833 5 349.394 5C351.034 5 352.296 5.53188 353.181 6.59565C354.066 7.63347 354.508 9.12533 354.508 11.0712ZM355.016 42.6339C355.016 46.863 355.979 50.1192 357.905 52.4024C359.856 54.6596 362.407 55.7883 365.556 55.7883C368.237 55.7883 370.54 54.6337 372.466 52.3245C374.418 49.9894 375.394 46.6555 375.394 42.3226C375.394 39.5204 374.99 37.1075 374.183 35.0838C373.377 33.06 372.231 31.5033 370.748 30.4136C369.265 29.2979 367.534 28.7401 365.556 28.7401C363.526 28.7401 361.717 29.2979 360.13 30.4136C358.542 31.5033 357.293 33.0989 356.382 35.2005C355.471 37.2762 355.016 39.754 355.016 42.6339Z" fill="black"/>
<path d="M405.297 26.8331V57.5396C405.297 59.6671 404.789 61.2757 403.774 62.3654C402.759 63.4551 401.471 64 399.909 64C398.348 64 397.073 63.4422 396.084 62.3265C395.121 61.2109 394.639 59.6152 394.639 57.5396V27.1445C394.639 25.0429 395.121 23.4602 396.084 22.3964C397.073 21.3327 398.348 20.8008 399.909 20.8008C401.471 20.8008 402.759 21.3327 403.774 22.3964C404.789 23.4602 405.297 24.9391 405.297 26.8331ZM400.026 15.8582C398.543 15.8582 397.268 15.4041 396.201 14.496C395.16 13.588 394.639 12.3036 394.639 10.6431C394.639 9.1383 395.173 7.90589 396.24 6.94591C397.333 5.95998 398.595 5.46702 400.026 5.46702C401.406 5.46702 402.629 5.90809 403.696 6.79024C404.763 7.67238 405.297 8.95668 405.297 10.6431C405.297 12.2777 404.776 13.562 403.735 14.496C402.694 15.4041 401.458 15.8582 400.026 15.8582Z" fill="black"/>
<path d="M416.93 21.7348H418.101V15.3522C418.101 13.6398 418.14 12.3036 418.218 11.3437C418.322 10.3577 418.582 9.51451 418.999 8.81398C419.415 8.08751 420.014 7.50374 420.795 7.06266C421.575 6.59565 422.447 6.36214 423.41 6.36214C424.763 6.36214 425.987 6.86807 427.08 7.87995C427.808 8.55453 428.264 9.38478 428.446 10.3707C428.654 11.3307 428.758 12.7058 428.758 14.496V21.7348H432.662C434.172 21.7348 435.317 22.0981 436.097 22.8245C436.904 23.5251 437.308 24.4332 437.308 25.5488C437.308 26.9758 436.735 27.9747 435.59 28.5455C434.471 29.1163 432.857 29.4017 430.749 29.4017H428.758V48.9387C428.758 50.5992 428.81 51.8835 428.914 52.7916C429.045 53.6737 429.357 54.4002 429.851 54.971C430.372 55.5158 431.205 55.7883 432.35 55.7883C432.974 55.7883 433.82 55.6845 434.887 55.4769C435.954 55.2434 436.787 55.1266 437.386 55.1266C438.244 55.1266 439.012 55.4769 439.689 56.1774C440.392 56.852 440.743 57.6952 440.743 58.7071C440.743 60.4195 439.806 61.7298 437.932 62.6379C436.058 63.546 433.365 64 429.851 64C426.52 64 423.996 63.4422 422.278 62.3265C420.56 61.2109 419.428 59.6671 418.882 57.6952C418.361 55.7234 418.101 53.0899 418.101 49.7949V29.4017H416.696C415.16 29.4017 413.989 29.0385 413.182 28.312C412.375 27.5855 411.972 26.6645 411.972 25.5488C411.972 24.4332 412.388 23.5251 413.221 22.8245C414.08 22.0981 415.316 21.7348 416.93 21.7348Z" fill="black"/>
<path d="M479 50.1062C479 53.038 478.284 55.5547 476.853 57.6563C475.422 59.732 473.3 61.3146 470.49 62.4044C467.705 63.4681 464.309 64 460.301 64C456.475 64 453.196 63.4162 450.463 62.2487C447.731 61.0811 445.714 59.6282 444.412 57.8898C443.111 56.1255 442.461 54.3613 442.461 52.597C442.461 51.4294 442.877 50.4305 443.71 49.6003C444.543 48.77 445.597 48.3549 446.872 48.3549C447.991 48.3549 448.85 48.6273 449.448 49.1722C450.047 49.717 450.619 50.4824 451.166 51.4683C452.259 53.3624 453.56 54.7764 455.07 55.7104C456.605 56.6445 458.687 57.1115 461.316 57.1115C463.45 57.1115 465.194 56.6445 466.547 55.7104C467.926 54.7504 468.616 53.6607 468.616 52.4413C468.616 50.5732 467.9 49.2111 466.469 48.3549C465.063 47.4987 462.734 46.6814 459.481 45.903C455.812 44.9949 452.819 44.0479 450.502 43.062C448.212 42.0501 446.377 40.7269 444.998 39.0923C443.619 37.4578 442.929 35.447 442.929 33.06C442.929 30.9325 443.567 28.9217 444.842 27.0277C446.117 25.1337 447.991 23.6288 450.463 22.5132C452.962 21.3716 455.968 20.8008 459.481 20.8008C462.24 20.8008 464.712 21.0862 466.898 21.657C469.11 22.2278 470.945 22.9932 472.403 23.9532C473.886 24.9131 475.005 25.9769 475.76 27.1445C476.541 28.312 476.931 29.4536 476.931 30.5693C476.931 31.7887 476.515 32.7876 475.682 33.566C474.875 34.3443 473.717 34.7335 472.207 34.7335C471.114 34.7335 470.177 34.4222 469.397 33.7995C468.642 33.1768 467.77 32.2427 466.781 30.9974C465.974 29.9595 465.024 29.1293 463.931 28.5066C462.838 27.8839 461.355 27.5726 459.481 27.5726C457.555 27.5726 455.955 27.9877 454.679 28.8179C453.404 29.6223 452.767 30.6341 452.767 31.8536C452.767 32.9692 453.235 33.8903 454.172 34.6168C455.109 35.3173 456.371 35.9011 457.959 36.3681C459.546 36.8351 461.732 37.4059 464.517 38.0805C467.822 38.8848 470.516 39.8448 472.598 40.9604C474.706 42.0761 476.293 43.3993 477.36 44.9301C478.453 46.4349 479 48.1603 479 50.1062Z" fill="black"/>
</g>
<defs>
<clipPath id="clip0_63_21">
<rect width="479" height="70" fill="white"/>
</clipPath>
</defs>
</svg>
