<svg width="252" height="252" viewBox="0 0 252 252" fill="none" xmlns="http://www.w3.org/2000/svg">
<g clip-path="url(#clip0_63_12)">
<path d="M135.415 7.36992C135.632 4.61701 138.041 2.55064 140.783 2.87718C163.611 5.5957 185.251 14.5591 203.315 28.7788C205.485 30.4869 205.727 33.6515 203.934 35.7513L169.838 75.6726C168.044 77.7724 164.899 78.0026 162.663 76.3828C154.725 70.6336 145.545 66.831 135.867 65.2838C133.141 64.8478 131.079 62.461 131.296 59.7081L135.415 7.36992Z" fill="#3DB231"/>
<path d="M217.247 49.0638C219.346 47.2703 222.511 47.5126 224.219 49.6824C238.439 67.7463 247.403 89.3857 250.122 112.214C250.449 114.956 248.383 117.365 245.63 117.582L193.292 121.702C190.539 121.919 188.152 119.858 187.716 117.131C186.168 107.453 182.366 98.2731 176.616 90.336C174.996 88.0996 175.226 84.9543 177.326 83.1609L217.247 49.0638Z" fill="#3DB231"/>
<path d="M245.514 135.41C248.267 135.629 250.332 138.04 250.003 140.782C247.264 163.608 238.282 185.24 224.047 203.292C222.337 205.46 219.172 205.7 217.074 203.905L177.182 169.774C175.084 167.979 174.856 164.834 176.478 162.599C182.234 154.666 186.045 145.489 187.6 135.813C188.039 133.087 190.427 131.027 193.18 131.246L245.514 135.41Z" fill="#1456C0"/>
<path d="M203.75 217.206C205.542 219.307 205.297 222.472 203.126 224.178C185.05 238.383 163.402 247.328 140.572 250.028C137.83 250.352 135.422 248.283 135.208 245.53L131.132 193.189C130.918 190.436 132.981 188.051 135.709 187.617C145.388 186.078 154.571 182.283 162.513 176.54C164.751 174.922 167.896 175.155 169.688 177.256L203.75 217.206Z" fill="#1456C0"/>
<path d="M116.585 246.63C116.368 249.383 113.959 251.449 111.217 251.123C88.3889 248.404 66.7492 239.441 48.685 225.221C46.5152 223.513 46.2728 220.348 48.0662 218.249L82.1622 178.327C83.9556 176.228 87.1009 175.997 89.3373 177.617C97.2746 183.366 106.455 187.169 116.133 188.716C118.859 189.152 120.921 191.539 120.704 194.292L116.585 246.63Z" fill="#1456C0"/>
<path d="M34.7534 204.936C32.6536 206.73 29.489 206.487 27.7809 204.318C13.5607 186.254 4.5967 164.614 1.87757 141.786C1.55096 139.044 3.61726 136.635 6.37017 136.418L58.7082 132.298C61.4611 132.081 63.848 134.142 64.2841 136.869C65.8315 146.547 69.6343 155.727 75.3837 163.664C77.0037 165.9 76.7735 169.046 74.6738 170.839L34.7534 204.936Z" fill="#1456C0"/>
<path d="M6.8309 116.604C4.07874 116.378 2.02065 113.962 2.35659 111.221C5.15339 88.4022 14.191 66.7934 28.4726 48.778C30.188 46.6141 33.3535 46.3826 35.4471 48.1832L75.2512 82.4159C77.3449 84.2165 77.5643 87.3626 75.9368 89.5934C70.1604 97.5109 66.3264 106.678 64.746 116.35C64.3007 119.076 61.9068 121.129 59.1546 120.903L6.8309 116.604Z" fill="#1456C0"/>
<path d="M48.8052 34.9161C47.0189 32.8102 47.2721 29.6464 49.4477 27.9457C67.5602 13.7876 89.2302 4.89786 112.068 2.25704C114.811 1.93984 117.213 4.0144 117.42 6.76803L121.361 59.1199C121.568 61.8735 119.499 64.2534 116.771 64.68C107.088 66.1943 97.8946 69.9656 89.9378 75.6877C87.6959 77.3 84.5514 77.0591 82.7652 74.9532L48.8052 34.9161Z" fill="#1456C0"/>
</g>
<defs>
<clipPath id="clip0_63_12">
<rect width="251.071" height="251.215" fill="white" transform="translate(0.785156 0.785034)"/>
</clipPath>
</defs>
</svg>
